<svg width="484" height="64" viewBox="0 0 484 64" fill="none" xmlns="http://www.w3.org/2000/svg">
<path d="M22.4 48.64C17.92 48.64 13.9947 47.7227 10.624 45.888C7.25333 44.0533 4.62933 41.5787 2.752 38.464C0.917333 35.3067 0 31.744 0 27.776C0 24.576 0.64 21.6107 1.92 18.88C3.2 16.1493 4.928 13.76 7.104 11.712C9.32267 9.62133 11.8187 8 14.592 6.848C17.408 5.696 20.352 5.12 23.424 5.12C25.6853 5.12 27.5627 5.248 29.056 5.504C30.5493 5.76 31.8933 6.12267 33.088 6.592C34.2827 7.06134 35.4773 7.59467 36.672 8.192L37.376 20.16H36.224L30.144 10.24C29.0773 9.55734 28.0747 9.06667 27.136 8.768C26.1973 8.46934 25.0667 8.32 23.744 8.32C21.1413 8.32 18.7947 9.10934 16.704 10.688C14.656 12.224 13.0347 14.4213 11.84 17.28C10.6453 20.096 10.048 23.3813 10.048 27.136C10.048 30.848 10.624 34.0693 11.776 36.8C12.928 39.488 14.4853 41.5787 16.448 43.072C18.4533 44.5227 20.6933 45.248 23.168 45.248C24.7467 45.248 26.1547 45.056 27.392 44.672C28.672 44.2453 29.888 43.712 31.04 43.072L36.8 34.496H37.888L36.992 45.312C35.2427 46.336 33.1307 47.1467 30.656 47.744C28.224 48.3413 25.472 48.64 22.4 48.64Z" fill="#472836"/>
<path d="M59.9 48.64C56.8707 48.64 54.204 47.9573 51.9 46.592C49.596 45.184 47.804 43.328 46.524 41.024C45.244 38.72 44.604 36.1813 44.604 33.408C44.604 30.592 45.244 28.032 46.524 25.728C47.804 23.424 49.596 21.5893 51.9 20.224C54.204 18.8587 56.8707 18.176 59.9 18.176C62.9293 18.176 65.5747 18.8587 67.836 20.224C70.14 21.5893 71.932 23.424 73.212 25.728C74.492 28.032 75.132 30.592 75.132 33.408C75.132 36.1813 74.492 38.72 73.212 41.024C71.932 43.328 70.14 45.184 67.836 46.592C65.5747 47.9573 62.9293 48.64 59.9 48.64ZM60.604 45.504C61.8413 45.504 62.844 45.0133 63.612 44.032C64.4227 43.008 64.9987 41.664 65.34 40C65.724 38.336 65.916 36.5653 65.916 34.688C65.916 32.384 65.6813 30.208 65.212 28.16C64.7853 26.112 64.0813 24.448 63.1 23.168C62.1613 21.888 60.9027 21.248 59.324 21.248C58.044 21.248 56.9987 21.76 56.188 22.784C55.3773 23.7653 54.78 25.088 54.396 26.752C54.012 28.3733 53.82 30.144 53.82 32.064C53.82 34.4107 54.0547 36.608 54.524 38.656C54.9933 40.6613 55.7187 42.304 56.7 43.584C57.724 44.864 59.0253 45.504 60.604 45.504Z" fill="#472836"/>
<path d="M91.316 48.64C88.756 48.64 86.644 47.9787 84.98 46.656C83.3587 45.3333 82.548 43.3707 82.548 40.768V21.888L78.324 19.84V18.816H91.572V38.144C91.572 39.6373 91.9987 40.7893 92.852 41.6C93.7053 42.368 94.7933 42.752 96.116 42.752C96.9267 42.752 97.78 42.6027 98.676 42.304C99.572 42.0053 100.34 41.6 100.98 41.088V21.888L97.14 19.84V18.816H110.004V44.992L114.036 46.976V48H100.98V43.904H100.724C99.2307 45.3973 97.78 46.5707 96.372 47.424C94.964 48.2347 93.2787 48.64 91.316 48.64Z" fill="#472836"/>
<path d="M117.098 62.72V61.696L121.386 59.648V25.856L117.29 22.848V22.08L128.938 18.176H129.706L130.218 22.08H130.602C132.181 20.7147 133.695 19.7333 135.146 19.136C136.639 18.496 138.239 18.176 139.946 18.176C141.823 18.176 143.573 18.752 145.194 19.904C146.858 21.0133 148.181 22.6133 149.162 24.704C150.143 26.7947 150.634 29.2907 150.634 32.192C150.634 35.6053 149.951 38.5493 148.586 41.024C147.221 43.456 145.407 45.3333 143.146 46.656C140.885 47.9787 138.431 48.64 135.786 48.64C134.805 48.64 133.845 48.5973 132.906 48.512C132.01 48.4267 131.157 48.256 130.346 48V59.648L135.338 61.696V62.72H117.098ZM134.634 23.424C133.866 23.424 133.141 23.5307 132.458 23.744C131.818 23.9573 131.114 24.2773 130.346 24.704V43.2C131.583 44.608 133.269 45.312 135.402 45.312C136.426 45.312 137.407 44.992 138.346 44.352C139.327 43.712 140.117 42.5813 140.714 40.96C141.354 39.3387 141.674 37.0347 141.674 34.048C141.674 30.3787 140.949 27.6907 139.498 25.984C138.047 24.2773 136.426 23.424 134.634 23.424Z" fill="#472836"/>
<path d="M154.658 48V46.976L158.945 44.928V7.296L154.85 4.288V3.52L167.202 0H167.969V44.928L171.745 46.976V48H154.658Z" fill="#472836"/>
<path d="M190.316 48.64C185.922 48.64 182.445 47.3813 179.885 44.864C177.367 42.304 176.109 38.9333 176.109 34.752C176.109 31.5093 176.813 28.6507 178.221 26.176C179.629 23.6587 181.527 21.696 183.917 20.288C186.306 18.88 188.973 18.176 191.917 18.176C195.373 18.176 198.06 19.328 199.98 21.632C201.9 23.936 202.882 27.2 202.924 31.424L202.669 31.744H184.749V32.064C184.749 33.856 185.09 35.4987 185.773 36.992C186.455 38.4427 187.522 39.5947 188.973 40.448C190.466 41.3013 192.386 41.728 194.732 41.728C195.97 41.728 197.25 41.5787 198.572 41.28C199.938 40.9813 201.346 40.4693 202.796 39.744H202.988V40.768C201.922 43.0293 200.279 44.9067 198.061 46.4C195.885 47.8933 193.303 48.64 190.316 48.64ZM190.445 21.056C188.951 21.056 187.714 21.7387 186.732 23.104C185.794 24.4693 185.197 26.3893 184.941 28.864H195.757C195.458 25.92 194.839 23.8933 193.9 22.784C193.004 21.632 191.853 21.056 190.445 21.056Z" fill="#472836"/>
<path d="M223 48V46.976L228.44 44.352V9.408L223 6.784V5.76H244.824C249.901 5.76 254.211 6.592 257.752 8.256C261.293 9.92 263.981 12.2027 265.816 15.104C267.693 18.0053 268.632 21.2907 268.632 24.96C268.632 28.288 268.013 31.36 266.776 34.176C265.581 36.992 263.896 39.424 261.72 41.472C259.544 43.52 256.984 45.12 254.04 46.272C251.096 47.424 247.875 48 244.376 48H223ZM242.2 9.28H238.104V44.48H243.096C248.045 44.48 251.864 42.9013 254.552 39.744C257.24 36.544 258.584 32.2773 258.584 26.944C258.584 21.568 257.197 17.28 254.424 14.08C251.693 10.88 247.619 9.28 242.2 9.28Z" fill="#C06E52"/>
<path d="M282.249 11.84C280.883 11.84 279.752 11.4133 278.856 10.56C278.003 9.664 277.576 8.55467 277.576 7.232C277.576 5.86667 278.003 4.75734 278.856 3.904C279.752 3.008 280.883 2.56 282.249 2.56C283.614 2.56 284.723 3.008 285.576 3.904C286.472 4.75734 286.921 5.86667 286.921 7.232C286.921 8.55467 286.472 9.664 285.576 10.56C284.723 11.4133 283.614 11.84 282.249 11.84ZM273.609 48V46.976L277.896 44.928V25.472L273.8 22.464V21.696L286.153 18.176H286.921V44.928L290.697 46.976V48H273.609Z" fill="#C06E52"/>
<path d="M302.473 48.576C300.382 48.576 298.59 47.9573 297.097 46.72C295.604 45.44 294.9 43.6053 294.985 41.216C294.985 39.68 295.284 38.3787 295.881 37.312C296.478 36.2027 297.524 35.2427 299.017 34.432C300.51 33.6213 302.601 32.8747 305.289 32.192L311.305 30.72V26.752C311.305 25.1307 310.814 23.8293 309.833 22.848C308.852 21.8667 307.593 21.376 306.057 21.376C304.692 21.376 303.71 21.6747 303.113 22.272C302.516 22.8693 302.217 23.7653 302.217 24.96V27.904L301.961 28.16H297.737C297.097 28.16 296.649 28.0107 296.393 27.712C296.137 27.4133 296.009 26.9013 296.009 26.176C296.009 25.2373 296.372 24.32 297.097 23.424C297.865 22.528 298.868 21.696 300.105 20.928C301.641 19.9467 303.07 19.2427 304.393 18.816C305.758 18.3893 307.23 18.176 308.809 18.176C310.9 18.176 312.82 18.4533 314.569 19.008C316.318 19.5627 317.705 20.4587 318.729 21.696C319.796 22.8907 320.329 24.448 320.329 26.368V43.264C321.012 43.9467 322.036 44.288 323.401 44.288H325.257L325.449 44.48V45.376C324.98 46.1867 324.169 46.9333 323.017 47.616C321.908 48.2987 320.457 48.64 318.665 48.64C316.873 48.64 315.401 48.2773 314.249 47.552C313.14 46.784 312.286 45.696 311.689 44.288H311.305C310.238 45.4827 308.958 46.5067 307.465 47.36C305.972 48.1707 304.308 48.576 302.473 48.576ZM303.433 39.424C303.433 40.7893 303.796 41.8133 304.521 42.496C305.289 43.136 306.334 43.456 307.657 43.456C308.809 43.456 310.025 43.2 311.305 42.688V33.28C309.172 33.7493 307.529 34.2613 306.377 34.816C305.268 35.3707 304.5 36.0107 304.073 36.736C303.646 37.4613 303.433 38.3573 303.433 39.424Z" fill="#C06E52"/>
<path d="M327.415 48V46.976L331.703 44.928V7.296L327.607 4.288V3.52L339.959 0H340.727V44.928L344.503 46.976V48H327.415Z" fill="#C06E52"/>
<path d="M363.97 48.64C360.941 48.64 358.274 47.9573 355.97 46.592C353.666 45.184 351.874 43.328 350.594 41.024C349.314 38.72 348.674 36.1813 348.674 33.408C348.674 30.592 349.314 28.032 350.594 25.728C351.874 23.424 353.666 21.5893 355.97 20.224C358.274 18.8587 360.941 18.176 363.97 18.176C366.999 18.176 369.645 18.8587 371.906 20.224C374.21 21.5893 376.002 23.424 377.282 25.728C378.562 28.032 379.202 30.592 379.202 33.408C379.202 36.1813 378.562 38.72 377.282 41.024C376.002 43.328 374.21 45.184 371.906 46.592C369.645 47.9573 366.999 48.64 363.97 48.64ZM364.674 45.504C365.911 45.504 366.914 45.0133 367.682 44.032C368.493 43.008 369.069 41.664 369.41 40C369.794 38.336 369.986 36.5653 369.986 34.688C369.986 32.384 369.751 30.208 369.282 28.16C368.855 26.112 368.151 24.448 367.17 23.168C366.231 21.888 364.973 21.248 363.394 21.248C362.114 21.248 361.069 21.76 360.258 22.784C359.447 23.7653 358.85 25.088 358.466 26.752C358.082 28.3733 357.89 30.144 357.89 32.064C357.89 34.4107 358.125 36.608 358.594 38.656C359.063 40.6613 359.789 42.304 360.77 43.584C361.794 44.864 363.095 45.504 364.674 45.504Z" fill="#C06E52"/>
<path d="M397.882 38.272C395.877 38.272 394.021 37.9307 392.314 37.248C391.375 37.8453 390.906 38.6773 390.906 39.744C390.906 41.792 392.549 42.816 395.834 42.816H402.874C406.245 42.816 408.719 43.5627 410.298 45.056C411.877 46.5067 412.666 48.6613 412.666 51.52C412.666 53.4827 411.983 55.36 410.618 57.152C409.253 58.9867 407.311 60.48 404.794 61.632C402.319 62.784 399.354 63.36 395.898 63.36C391.759 63.36 388.794 62.6987 387.002 61.376C385.21 60.096 384.314 58.4747 384.314 56.512C384.314 55.744 384.399 55.04 384.57 54.4C384.783 53.8027 385.082 53.184 385.466 52.544L389.498 49.984V49.664C386.213 48.5973 384.57 46.4853 384.57 43.328C384.57 41.3653 385.167 39.7653 386.362 38.528L390.01 36.416V36.032C388.645 35.136 387.557 34.0267 386.746 32.704C385.978 31.3387 385.594 29.8453 385.594 28.224C385.594 26.304 386.127 24.5973 387.194 23.104C388.303 21.6107 389.775 20.4373 391.61 19.584C393.445 18.688 395.535 18.24 397.882 18.24C399.119 18.24 400.335 18.368 401.53 18.624C402.725 18.88 403.663 19.1787 404.346 19.52L414.202 18.88V22.72L407.802 22.208L407.546 22.464C408.314 23.1467 408.933 24 409.402 25.024C409.871 26.048 410.106 27.1147 410.106 28.224C410.106 30.144 409.573 31.872 408.506 33.408C407.439 34.9013 405.967 36.096 404.09 36.992C402.255 37.8453 400.186 38.272 397.882 38.272ZM398.33 35.52C399.695 35.52 400.719 34.88 401.402 33.6C402.127 32.2773 402.49 30.5493 402.49 28.416C402.49 25.984 402.042 24.128 401.146 22.848C400.25 21.5253 399.098 20.864 397.69 20.864C396.239 20.864 395.151 21.5253 394.426 22.848C393.701 24.1707 393.338 25.8987 393.338 28.032C393.338 30.464 393.786 32.32 394.682 33.6C395.578 34.88 396.794 35.52 398.33 35.52ZM389.754 55.296C389.754 56.96 390.33 58.3253 391.482 59.392C392.634 60.5013 394.319 61.056 396.538 61.056C399.269 61.056 401.423 60.416 403.002 59.136C404.581 57.8987 405.37 56.4267 405.37 54.72C405.37 53.0987 404.943 51.968 404.09 51.328C403.237 50.688 401.743 50.368 399.61 50.368H394.106C393.466 50.368 392.847 50.3467 392.25 50.304C390.586 51.3707 389.754 53.0347 389.754 55.296Z" fill="#C06E52"/>
<path d="M430.011 48.64C427.451 48.64 425.339 47.9787 423.675 46.656C422.054 45.3333 421.243 43.3707 421.243 40.768V21.888L417.019 19.84V18.816H430.267V38.144C430.267 39.6373 430.694 40.7893 431.547 41.6C432.4 42.368 433.488 42.752 434.811 42.752C435.622 42.752 436.475 42.6027 437.371 42.304C438.267 42.0053 439.035 41.6 439.675 41.088V21.888L435.835 19.84V18.816H448.699V44.992L452.731 46.976V48H439.675V43.904H439.419C437.926 45.3973 436.475 46.5707 435.067 47.424C433.659 48.2347 431.974 48.64 430.011 48.64Z" fill="#C06E52"/>
<path d="M470.449 48.64C466.054 48.64 462.577 47.3813 460.017 44.864C457.5 42.304 456.241 38.9333 456.241 34.752C456.241 31.5093 456.945 28.6507 458.353 26.176C459.761 23.6587 461.66 21.696 464.049 20.288C466.438 18.88 469.105 18.176 472.049 18.176C475.505 18.176 478.193 19.328 480.113 21.632C482.033 23.936 483.014 27.2 483.057 31.424L482.801 31.744H464.881V32.064C464.881 33.856 465.222 35.4987 465.905 36.992C466.588 38.4427 467.654 39.5947 469.105 40.448C470.598 41.3013 472.518 41.728 474.865 41.728C476.102 41.728 477.382 41.5787 478.705 41.28C480.07 40.9813 481.478 40.4693 482.929 39.744H483.121V40.768C482.054 43.0293 480.412 44.9067 478.193 46.4C476.017 47.8933 473.436 48.64 470.449 48.64ZM470.577 21.056C469.084 21.056 467.846 21.7387 466.865 23.104C465.926 24.4693 465.329 26.3893 465.073 28.864H475.889C475.59 25.92 474.972 23.8933 474.033 22.784C473.137 21.632 471.985 21.056 470.577 21.056Z" fill="#C06E52"/>
</svg>
